#!OML:ASF F:\VICON\USERDATA\INSTALL\rory3\rory3.ASF
:FULLY-SPECIFIED
:DEGREES
713
root 0.991289 20.019 7.39295 20.6474 -5.76634 -2.71844
lowerback -7.24796 -0.601802 7.15101
upperback -7.83617 -1.06881 1.79197
thorax -4.2296 -0.853068 -2.16538
lowerneck -15.3876 -5.73303 -8.90175
upperneck 24.6451 -6.8185 3.88861
head 10.9586 -3.5027 1.9247
rclavicle -4.39811e-015 -1.94809e-014
rhumerus -46.6444 21.535 -83.9076
rradius 56.2706
rwrist 11.7543
rhand -24.0487 -44.4233
rfingers 7.12502
rthumb 2.4303 -74.3892
lclavicle -4.39811e-015 -1.94809e-014
lhumerus -47.4719 -28.7195 89.6304
lradius 71.6707
lwrist 4.6598
lhand -34.2373 -42.3931
lfingers 7.12502
lthumb -7.40863 -12.5428
rfemur -57.0636 1.43487 19.0869
rtibia 67.9888
rfoot 1.66524 -5.89582
rtoes -9.81149
lfemur -34.8366 11.1522 -19.0343
ltibia 52.29
lfoot 9.76141 4.27139
ltoes -15.1591
714
root 0.915329 20.0028 7.39804 20.2236 -5.50383 -2.82936
lowerback -6.84728 -0.583473 7.40653
upperback -7.68815 -1.02428 1.71766
thorax -4.30203 -0.843186 -2.37888
lowerneck -15.5149 -5.80214 -8.90804
upperneck 24.7919 -6.9205 3.93464
head 11.0479 -3.54281 1.92405
rclavicle 9.28076e-015 1.07344e-014
rhumerus -46.3777 21.1306 -83.9831
rradius 55.4191
rwrist 11.4337
rhand -24.0568 -44.5323
rfingers 7.12502
rthumb 2.42246 -74.4983
lclavicle 9.28076e-015 1.07344e-014
lhumerus -47.2368 -28.2718 89.7311
lradius 70.5116
lwrist 5.12658
lhand -34.2775 -41.7391
lfingers 7.12502
lthumb -7.44742 -11.8901
rfemur -55.0101 1.61706 19.34
rtibia 64.863
rfoot 2.7841 -4.97619
rtoes -10.6786
lfemur -35.8638 11.9731 -18.8838
ltibia 56.3516
lfoot 8.19994 3.91524
ltoes -12.5717
715
root 0.843083 19.9864 7.4031 19.9177 -5.27286 -2.77126
lowerback -6.65771 -0.600983 7.51791
upperback -7.56281 -1.04169 1.60735
thorax -4.28231 -0.856189 -2.55514
lowerneck -15.4274 -5.78769 -8.79651
upperneck 24.7853 -6.91267 3.84404
head 11.0194 -3.54083 1.8762
rclavicle -9.85227e-015 -2.38542e-014
rhumerus -46.1343 20.6962 -84.0112
rradius 54.7259
rwrist 11.3873
rhand -24.0616 -44.6523
rfingers 7.12502
rthumb 2.41786 -74.6183
lclavicle -9.85227e-015 -2.38542e-014
lhumerus -47.1104 -27.6292 89.758
lradius 69.5449
lwrist 5.77043
lhand -33.9062 -41.1442
lfingers 7.12502
lthumb -7.08901 -11.2829
rfemur -53.1109 1.75356 19.3775
rtibia 61.7385
rfoot 3.96379 -4.3
rtoes -11.5122
lfemur -37.0414 12.6497 -18.9235
ltibia 60.3878
lfoot 6.04119 3.40927
ltoes -13.8879
716
root 0.741685 19.9558 7.40476 19.8019 -5.13986 -2.94986
lowerback -6.55487 -0.624888 7.38539
upperback -7.56287 -1.0573 1.665
thorax -4.33504 -0.857176 -2.41994
lowerneck -15.0013 -5.6857 -8.61448
upperneck 24.6187 -6.79558 3.64421
head 10.8502 -3.50013 1.802
rclavicle -2.26118e-014 -1.59028e-014
rhumerus -46.1165 20.3458 -84.1721
rradius 54.1529
rwrist 11.0724
rhand -23.9793 -44.7186
rfingers 7.12502
rthumb 2.49735 -74.6837
lclavicle -2.26118e-014 -1.59028e-014
lhumerus -47.1345 -26.9172 89.7868
lradius 68.612
lwrist 6.58941
lhand -33.5493 -40.4973
lfingers 7.12502
lthumb -6.74451 -10.6247
rfemur -51.5142 2.57359 19.5962
rtibia 58.6703
rfoot 5.43362 -4.35108
rtoes -12.2029
lfemur -38.5272 13.5444 -18.5866
ltibia 64.444
lfoot 4.64419 2.95129
ltoes -13.1059
717
root 0.651546 19.9216 7.41157 19.6198 -4.79939 -3.10207
lowerback -6.2781 -0.70729 7.47924
upperback -7.5869 -1.14158 1.67179
thorax -4.52787 -0.909926 -2.46058
lowerneck -14.9411 -5.64069 -8.4411
upperneck 24.7199 -6.74186 3.47812
head 10.8587 -3.48112 1.72299
rclavicle -1.33745e-014 -8.34896e-015
rhumerus -46.1111 19.9643 -84.4037
rradius 53.5624
rwrist 10.3153
rhand -24.0974 -44.6114
rfingers 7.12502
rthumb 2.38332 -74.5779
lclavicle -1.33745e-014 -8.34896e-015
lhumerus -47.1463 -26.2699 89.7679
lradius 67.6229
lwrist 7.02547
lhand -33.2079 -39.661
lfingers 7.12502
lthumb -6.41491 -9.77814
rfemur -49.774 3.04741 19.8135
rtibia 55.6782
rfoot 6.82816 -4.70316
rtoes -10.0577
lfemur -39.804 14.1867 -18.1853
ltibia 68.4058
lfoot 3.22488 3.02409
ltoes -11.2572
718
root 0.570136 19.8833 7.43635 19.1384 -4.43425 -2.89034
lowerback -5.95445 -0.790769 7.37087
upperback -7.49164 -1.22697 1.52683
thorax -4.61527 -0.951039 -2.54828
lowerneck -14.9682 -5.69274 -8.47769
upperneck 24.8534 -6.83436 3.57232
head 10.9251 -3.5159 1.74849
rclavicle -4.32791e-014 7.15625e-015
rhumerus -46.0956 19.3624 -84.4715
rradius 53.0332
rwrist 9.94115
rhand -24.0359 -44.2464
rfingers 7.12502
rthumb 2.44265 -74.2122
lclavicle -4.32791e-014 7.15625e-015
lhumerus -47.1551 -25.6817 89.7818
lradius 66.6302
lwrist 7.06536
lhand -32.9792 -39.2658
lfingers 7.12502
lthumb -6.19414 -9.37633
rfemur -47.6321 3.21421 19.671
rtibia 52.8055
rfoot 7.11458 -5.39004
rtoes -10.7836
lfemur -40.5323 14.6284 -18.086
ltibia 72.2059
lfoot 1.54762 3.58815
ltoes -10.4687
719
root 0.489296 19.8303 7.45712 18.5919 -4.04404 -2.43172
lowerback -5.46114 -0.922257 7.00629
upperback -7.53141 -1.35116 1.358
thorax -4.93699 -1.00957 -2.51137
lowerneck -14.6366 -5.61216 -8.47585
upperneck 24.9087 -6.76262 3.60555
head 10.8769 -3.48498 1.77899
rclavicle -6.83322e-016 7.15625e-015
rhumerus -46.2818 18.7478 -84.4921
rradius 52.5419
rwrist 9.86336
rhand -23.7404 -44.0549
rfingers 7.12502
rthumb 2.72806 -74.0172
lclavicle -6.83322e-016 7.15625e-015
lhumerus -47.464 -24.9516 89.9473
lradius 65.7704
lwrist 7.27585
lhand -33.0537 -38.2835
lfingers 7.12502
lthumb -6.26602 -8.39619
rfemur -45.5261 3.22299 19.3269
rtibia 50.0788
rfoot 7.81243 -5.60158
rtoes -12.4867
lfemur -41.2552 14.9312 -18.198
ltibia 75.9481
lfoot 0.386886 4.22874
ltoes -8.76677
720
root 0.404139 19.7642 7.4748 18.3578 -3.73677 -2.26883
lowerback -5.17878 -1.02381 6.84032
upperback -7.69521 -1.45298 1.30455
thorax -5.2765 -1.06676 -2.46478
lowerneck -14.1074 -5.51049 -8.51056
upperneck 24.8777 -6.65933 3.6104
head 10.7565 -3.44916 1.81432
rclavicle -1.02421e-014 1.43125e-014
rhumerus -46.4382 18.0712 -84.5405
rradius 52.0029
rwrist 9.74135
rhand -23.7302 -44.0647
rfingers 7.12502
rthumb 2.73794 -74.0268
lclavicle -1.02421e-014 1.43125e-014
lhumerus -47.9542 -24.0327 90.0504
lradius 65.1176
lwrist 7.47188
lhand -32.5016 -37.7608
lfingers 7.12502
lthumb -5.73303 -7.85832
rfemur -43.8151 3.36399 19.3031
rtibia 47.5049
rfoot 9.01217 -5.4513
rtoes -14.6299
lfemur -42.3625 15.4291 -18.0148
ltibia 79.7192
lfoot -2.58497 5.10435
ltoes -15.56
721
root 0.312066 19.6832 7.49262 18.4594 -3.60291 -2.48927
lowerback -5.27265 -1.00907 6.93395
upperback -7.7811 -1.43801 1.32916
thorax -5.31794 -1.06683 -2.49137
lowerneck -13.5997 -5.72769 -9.17284
upperneck 24.6425 -6.97706 4.11159
head 10.6418 -3.60402 2.06939
rclavicle 1.0517e-014 9.14409e-015
rhumerus -46.3362 17.464 -84.6358
rradius 51.5287
rwrist 9.4779
rhand -23.7466 -44.1465
rfingers 7.12502
rthumb 2.72212 -74.1089
lclavicle 1.0517e-014 9.14409e-015
lhumerus -48.1824 -23.0664 89.8785
lradius 64.5853
lwrist 7.41638
lhand -32.0514 -36.9049
lfingers 7.12502
lthumb -5.29839 -6.99116
rfemur -42.5608 3.82967 19.5935
rtibia 45.1397
rfoot 10.231 -5.40645
rtoes -15.3429
lfemur -43.7905 16.2401 -17.4555
ltibia 83.5254
lfoot -4.57146 5.48519
ltoes -18.9321
722
root 0.216586 19.5851 7.50699 18.5416 -3.33279 -2.63966
lowerback -5.40764 -1.01944 6.97124
upperback -7.76209 -1.46538 1.30891
thorax -5.22627 -1.07991 -2.53701
lowerneck -13.8268 -5.51124 -8.66128
upperneck 24.7617 -6.68196 3.7555
head 10.6721 -3.45992 1.89477
rclavicle -2.98317e-014 3.57812e-015
rhumerus -45.9922 17.0081 -84.8111
rradius 50.9196
rwrist 9.08999
rhand -23.7325 -44.7579
rfingers 7.12502
rthumb 2.73574 -74.7201
lclavicle -2.98317e-014 3.57812e-015
lhumerus -48.1151 -22.363 89.6575
lradius 63.9367
lwrist 7.87385
lhand -31.94 -36.1573
lfingers 7.12502
lthumb -5.1908 -6.24087
rfemur -41.4279 4.27255 19.8166
rtibia 43.0537
rfoot 11.1293 -5.88009
rtoes -13.8938
lfemur -45.2319 16.8933 -16.8492
ltibia 87.3212
lfoot -4.60803 5.457
ltoes -15.7917
723
root 0.125239 19.4797 7.52774 18.1491 -2.6375 -2.3819
lowerback -5.36046 -1.22867 6.77445
upperback -7.5601 -1.74968 1.16884
thorax -5.05919 -1.20559 -2.5779
lowerneck -13.503 -5.74606 -8.98869
upperneck 24.355 -6.98971 3.91152
head 10.5029 -3.61432 1.96792
rclavicle -3.11378e-014 -1.45113e-014
rhumerus -45.5442 16.4703 -84.9525
rradius 50.221
rwrist 8.86673
rhand -23.7231 -45.7384
rfingers 7.12502
rthumb 2.7448 -75.7004
lclavicle -3.11378e-014 -1.45113e-014
lhumerus -47.9819 -21.5723 89.3329
lradius 63.3708
lwrist 8.14826
lhand -31.4297 -35.5265
lfingers 7.12502
lthumb -4.69808 -5.59862
rfemur -39.7752 4.17047 19.8486
rtibia 41.2945
rfoot 11.8843 -6.51166
rtoes -12.5539
lfemur -46.032 16.9378 -16.3624
ltibia 90.8691
lfoot -3.12329 5.23381
ltoes -7.09244
724
root 0.0239517 19.3467 7.53731 18.1847 -2.96146 -2.30669
lowerback -5.50692 -1.14605 6.29939
upperback -7.48764 -1.64782 1.08692
thorax -4.86907 -1.12581 -2.40501
lowerneck -13.7246 -5.55162 -8.50429
upperneck 24.4261 -6.785 3.79977
head 10.5306 -3.486 1.87264
rclavicle 2.61961e-014 -6.16232e-015
rhumerus -45.2379 16.0514 -85.1208
rradius 49.7518
rwrist 8.79983
rhand -23.8188 -45.9469
rfingers 7.12502
rthumb 2.6524 -75.9101
lclavicle 2.61961e-014 -6.16232e-015
lhumerus -48.1373 -20.0507 88.6488
lradius 63.4493
lwrist 7.52416
lhand -30.693 -34.9897
lfingers 7.12502
lthumb -3.98671 -5.04728
rfemur -38.8471 4.52977 19.9967
rtibia 39.8573
rfoot 13.1502 -6.04493
rtoes -13.9521
lfemur -47.1107 18.0373 -15.9725
ltibia 94.4124
lfoot -3.93005 5.18134
ltoes -7.45218
725
root -0.0702281 19.2034 7.54558 17.9142 -2.66836 -2.15972
lowerback -5.31605 -1.28695 6.02139
upperback -7.38257 -1.82264 0.993628
thorax -4.86996 -1.19918 -2.34546
lowerneck -13.843 -5.46872 -8.31332
upperneck 24.447 -6.69759 3.77391
head 10.5455 -3.4297 1.84178
rclavicle 2.49708e-014 -1.66979e-014
rhumerus -44.9912 15.7154 -85.3394
rradius 49.2914
rwrist 8.81563
rhand -24.0153 -45.4409
rfingers 7.12502
rthumb 2.46261 -75.4065
lclavicle 2.49708e-014 -1.66979e-014
lhumerus -48.17 -19.1285 88.2136
lradius 63.0407
lwrist 7.69524
lhand -30.6046 -34.9824
lfingers 7.12502
lthumb -3.90129 -5.03839
rfemur -37.5432 4.23715 20.389
rtibia 38.7112
rfoot 14.292 -5.09105
rtoes -16.9852
lfemur -48.0387 18.4838 -15.3364
ltibia 97.8609
lfoot -4.91992 4.97755
ltoes -7.49516
726
root -0.164492 19.0458 7.54991 17.736 -2.22596 -2.43843
lowerback -5.19944 -1.37647 6.20973
upperback -7.22209 -1.94255 0.990711
thorax -4.7846 -1.2625 -2.45384
lowerneck -13.8601 -5.58191 -8.30072
upperneck 24.2007 -6.83447 3.72117
head 10.4659 -3.49501 1.80102
rclavicle 1.16336e-014 7.15625e-015
rhumerus -44.5267 15.2587 -85.5094
rradius 48.7926
rwrist 8.83116
rhand -23.9279 -45.6883
rfingers 7.12502
rthumb 2.54697 -75.6528
lclavicle 1.16336e-014 7.15625e-015
lhumerus -48.1499 -18.376 87.7941
lradius 62.6339
lwrist 7.87148
lhand -30.5602 -35.2897
lfingers 7.12502
lthumb -3.85846 -5.34493
rfemur -36.3458 3.89395 21.314
rtibia 37.7931
rfoot 15.2139 -4.6342
rtoes -18.4414
lfemur -49.2861 19.0386 -14.1574
ltibia 101.32
lfoot -5.6502 4.41506
ltoes -7.67843
727
root -0.273116 18.873 7.57129 17.9664 -2.54959 -2.36158
lowerback -5.69394 -1.25963 5.63838
upperback -7.10547 -1.81788 0.874644
thorax -4.34775 -1.16265 -2.27367
lowerneck -13.705 -5.85983 -8.46808
upperneck 23.6856 -7.19271 3.7744
head 10.2833 -3.66713 1.80096
rclavicle -3.76604e-015 5.76476e-015
rhumerus -44.066 14.8458 -85.7355
rradius 48.411
rwrist 8.70046
rhand -24.1069 -46.099
rfingers 7.12502
rthumb 2.37407 -76.0656
lclavicle -3.76604e-015 5.76476e-015
lhumerus -48.1009 -17.5618 87.2261
lradius 62.3729
lwrist 7.72878
lhand -30.6416 -35.4284
lfingers 7.12502
lthumb -3.93707 -5.48502
rfemur -35.7375 4.23354 21.5973
rtibia 37.1072
rfoot 15.3961 -5.1881
rtoes -20.2727
lfemur -50.7354 20.2163 -13.6007
ltibia 104.598
lfoot -6.03534 3.67352
ltoes -6.8904
